<svg width="24" height="24" viewBox="0 0 24 24" fill="none" xmlns="http://www.w3.org/2000/svg">
  <title>Ghim (Tổ ấm)</title>
  <path d="M9 3h6l1 6 3.2 3.2c.5.5.2 1.3-.5 1.3H6.3c-.7 0-1-.8-.5-1.3L9 9l0-6Z"
        fill="#C1615A" stroke="#2B1F16" stroke-width="1.6" stroke-linejoin="round"/>
    <path d="M12 13.4V21" stroke="#2B1F16" stroke-width="2" stroke-linecap="round"/>
    <path d="M12 13.4V21" stroke="#3E5C3A" stroke-width="1" stroke-linecap="round"/>
    <circle cx="12" cy="7" r="1.5" fill="#D9A544" stroke="#2B1F16" stroke-width="1"/>
  <path d="M18.6 3c1.8-.6 3.2.2 3.6 2 .4 1.8-.6 3.4-2.4 3.8-1.4.3-2.6-.3-3.2-1.4-.2 .9-.9 1.5-1.7 1.4.1-2.7 1.6-4.9 3.7-5.8Z" fill="#4A9B9B" stroke="#2B1F16" stroke-width="1"/><path d="M17 8.3c.7-1.8 2-3.4 3.8-4.4" stroke="#2B1F16" stroke-width="0.7" fill="none" stroke-linecap="round"/>
</svg>
