<svg width="24" height="24" viewBox="0 0 24 24" fill="none" xmlns="http://www.w3.org/2000/svg">
  <title>Cười ra lệ (Tổ ấm)</title>
  <circle cx="12" cy="12.5" r="9" fill="#D9A544" stroke="#2B1F16" stroke-width="1.8"/>
  <path d="M7.4 10.8c.8-.9 2-.9 2.8 0" stroke="#2B1F16" stroke-width="1.6" stroke-linecap="round" fill="none"/><path d="M13.8 10.8c.8-.9 2-.9 2.8 0" stroke="#2B1F16" stroke-width="1.6" stroke-linecap="round" fill="none"/><path d="M6.6 12.4c-.4 1.4-.2 2.6.6 3.4M17.4 12.4c.4 1.4.2 2.6-.6 3.4" stroke="#4A9B9B" stroke-width="1.4" stroke-linecap="round" fill="none"/>
  <path d="M7.8 14.2c1 2.3 2.7 3.6 4.2 3.6s3.2-1.3 4.2-3.6c-2.8.9-5.6.9-8.4 0Z" fill="#FBF3E1" stroke="#2B1F16" stroke-width="1.4" stroke-linejoin="round"/>
  
  <path d="M18.6 3c1.8-.6 3.2.2 3.6 2 .4 1.8-.6 3.4-2.4 3.8-1.4.3-2.6-.3-3.2-1.4-.2 .9-.9 1.5-1.7 1.4.1-2.7 1.6-4.9 3.7-5.8Z" fill="#4A9B9B" stroke="#2B1F16" stroke-width="1"/><path d="M17 8.3c.7-1.8 2-3.4 3.8-4.4" stroke="#2B1F16" stroke-width="0.7" fill="none" stroke-linecap="round"/>
</svg>
