<svg width="24" height="24" viewBox="0 0 24 24" fill="none" xmlns="http://www.w3.org/2000/svg">
  <title>Toát mồ hôi (Tổ ấm)</title>
  <circle cx="12" cy="12.5" r="9" fill="#D9A544" stroke="#2B1F16" stroke-width="1.8"/>
  <path d="M8 10.4h2.4M13.6 10.4h2.4" stroke="#2B1F16" stroke-width="1.6" stroke-linecap="round"/>
  <path d="M9 15.4h6" stroke="#2B1F16" stroke-width="1.6" stroke-linecap="round"/>
  <path d="M16.6 8.6c1 .8 1.3 2 .7 3.2-1-.2-1.6-1.1-1.5-2.1.1-.5.4-.9.8-1.1Z" fill="#4A9B9B" stroke="#2B1F16" stroke-width="1"/>
  <path d="M18.6 3c1.8-.6 3.2.2 3.6 2 .4 1.8-.6 3.4-2.4 3.8-1.4.3-2.6-.3-3.2-1.4-.2 .9-.9 1.5-1.7 1.4.1-2.7 1.6-4.9 3.7-5.8Z" fill="#4A9B9B" stroke="#2B1F16" stroke-width="1"/><path d="M17 8.3c.7-1.8 2-3.4 3.8-4.4" stroke="#2B1F16" stroke-width="0.7" fill="none" stroke-linecap="round"/>
</svg>
