<svg width="24" height="24" viewBox="0 0 24 24" fill="none" xmlns="http://www.w3.org/2000/svg">
  <title>Suy nghĩ (Tổ ấm)</title>
  <circle cx="12" cy="12.5" r="9" fill="#D9A544" stroke="#2B1F16" stroke-width="1.8"/>
  <path d="M7.6 10.4c.6-.6 1.6-.6 2.2 0M13.6 10c.7-.5 1.7-.3 2.1.3" stroke="#2B1F16" stroke-width="1.5" stroke-linecap="round" fill="none"/>
  <path d="M9.6 15.4c1.6.6 3.4.2 4.4-.8" stroke="#2B1F16" stroke-width="1.4" stroke-linecap="round" fill="none"/>
  <circle cx="16.8" cy="16.4" r="2.3" fill="#D9A544" stroke="#2B1F16" stroke-width="1.3"/>
  <path d="M18.6 3c1.8-.6 3.2.2 3.6 2 .4 1.8-.6 3.4-2.4 3.8-1.4.3-2.6-.3-3.2-1.4-.2 .9-.9 1.5-1.7 1.4.1-2.7 1.6-4.9 3.7-5.8Z" fill="#3E5C3A" stroke="#2B1F16" stroke-width="1"/><path d="M17 8.3c.7-1.8 2-3.4 3.8-4.4" stroke="#2B1F16" stroke-width="0.7" fill="none" stroke-linecap="round"/>
</svg>
