<svg width="24" height="24" viewBox="0 0 24 24" fill="none" xmlns="http://www.w3.org/2000/svg">
  <title>Chửi (Tổ ấm)</title>
  <circle cx="12" cy="12.5" r="9" fill="#C1615A" stroke="#2B1F16" stroke-width="1.8"/>
  <path d="M7 9.6 9.8 11.4M9.8 9.6 7 11.4M14.2 9.6 17 11.4M17 9.6l-2.8 1.8" stroke="#2B1F16" stroke-width="1.5" stroke-linecap="round"/>
  <path d="M8.8 15.6c1.4-1.2 4-1.2 5.4.2" stroke="#2B1F16" stroke-width="1.6" stroke-linecap="round" fill="none"/>
  <path d="M8.4 13.4h1.6M10.6 12.6l1.2 1.2M11.8 12.6l-1.2 1.2" stroke="#D9A544" stroke-width="1.1" stroke-linecap="round"/><circle cx="14.6" cy="13.4" r="0.9" fill="#D9A544"/>
  <path d="M18.6 3c1.8-.6 3.2.2 3.6 2 .4 1.8-.6 3.4-2.4 3.8-1.4.3-2.6-.3-3.2-1.4-.2 .9-.9 1.5-1.7 1.4.1-2.7 1.6-4.9 3.7-5.8Z" fill="#D9A544" stroke="#2B1F16" stroke-width="1"/><path d="M17 8.3c.7-1.8 2-3.4 3.8-4.4" stroke="#2B1F16" stroke-width="0.7" fill="none" stroke-linecap="round"/>
</svg>
