<svg width="24" height="24" viewBox="0 0 24 24" fill="none" xmlns="http://www.w3.org/2000/svg">
  <title>Ăn mừng (Tổ ấm)</title>
  <path d="M5 19 9.4 8.6c.3-.8 1.4-1 2-.3l4.3 4.9c.6.7.2 1.8-.7 1.9L5 19Z"
        fill="#3E5C3A" stroke="#2B1F16" stroke-width="1.7" stroke-linejoin="round"/>
  <circle cx="14.4" cy="4.6" r="1.1" fill="#C1615A" stroke="#2B1F16" stroke-width="1"/>
  <circle cx="18.4" cy="7.8" r="1.3" fill="#D9A544" stroke="#2B1F16" stroke-width="1"/>
  <circle cx="16.6" cy="11.8" r="0.9" fill="#4A9B9B" stroke="#2B1F16" stroke-width="0.9"/>
  <path d="M19.4 4.4v1.4M20.6 6.2h-1.4" stroke="#2B1F16" stroke-width="1" stroke-linecap="round"/>
  <circle cx="8.6" cy="14.4" r="0.7" fill="#C1615A"/>
  <circle cx="11.6" cy="16.2" r="0.6" fill="#4A9B9B"/>
  <path d="M18.6 3c1.8-.6 3.2.2 3.6 2 .4 1.8-.6 3.4-2.4 3.8-1.4.3-2.6-.3-3.2-1.4-.2 .9-.9 1.5-1.7 1.4.1-2.7 1.6-4.9 3.7-5.8Z" fill="#3E5C3A" stroke="#2B1F16" stroke-width="1"/><path d="M17 8.3c.7-1.8 2-3.4 3.8-4.4" stroke="#2B1F16" stroke-width="0.7" fill="none" stroke-linecap="round"/>
</svg>
