<svg width="24" height="24" viewBox="0 0 24 24" fill="none" xmlns="http://www.w3.org/2000/svg">
  <title>Đang suy nghĩ (Talavera)</title>
  <circle cx="12" cy="12.5" r="9" fill="#F2A80F" stroke="#0B0B0F" stroke-width="1.8"/>
  <path d="M7.6 10.4c.6-.6 1.6-.6 2.2 0M13.6 10c.7-.5 1.7-.3 2.1.3" stroke="#0B0B0F" stroke-width="1.5" stroke-linecap="round" fill="none"/>
  <path d="M9.6 15.4c1.6.6 3.4.2 4.4-.8" stroke="#0B0B0F" stroke-width="1.4" stroke-linecap="round" fill="none"/>
  <circle cx="16.8" cy="16.4" r="2.3" fill="#F2A80F" stroke="#0B0B0F" stroke-width="1.3"/>
  <g stroke="#0B0B0F" stroke-width="0.8" stroke-linecap="round">
    <path d="M19.4 3.4v-.9M19.4 6v.9M21.4 4.7h-.9M17.8 4.7h.9M20.6 3.2l.6-.6M17.6 6.2l-.6.6M20.6 6.2l.6.6M17.6 3.2l-.6-.6"/>
  </g>
  <circle cx="19.4" cy="4.7" r="1.4" fill="#2F9E4F" stroke="#0B0B0F" stroke-width="1"/>
</svg>
