<svg width="24" height="24" viewBox="0 0 24 24" fill="none" xmlns="http://www.w3.org/2000/svg">
  <title>Cười ra nước mắt (Talavera)</title>
  <circle cx="12" cy="12.5" r="9" fill="#F2A80F" stroke="#0B0B0F" stroke-width="1.8"/>
  <path d="M7.4 10.8c.8-.9 2-.9 2.8 0" stroke="#0B0B0F" stroke-width="1.6" stroke-linecap="round" fill="none"/><path d="M13.8 10.8c.8-.9 2-.9 2.8 0" stroke="#0B0B0F" stroke-width="1.6" stroke-linecap="round" fill="none"/><path d="M6.6 12.4c-.4 1.4-.2 2.6.6 3.4M17.4 12.4c.4 1.4.2 2.6-.6 3.4" stroke="#1E4FD6" stroke-width="1.4" stroke-linecap="round" fill="none"/>
  <path d="M7.8 14.2c1 2.3 2.7 3.6 4.2 3.6s3.2-1.3 4.2-3.6c-2.8.9-5.6.9-8.4 0Z" fill="#FDF6E3" stroke="#0B0B0F" stroke-width="1.4" stroke-linejoin="round"/>
  
  <g stroke="#0B0B0F" stroke-width="0.8" stroke-linecap="round">
    <path d="M19.4 3.4v-.9M19.4 6v.9M21.4 4.7h-.9M17.8 4.7h.9M20.6 3.2l.6-.6M17.6 6.2l-.6.6M20.6 6.2l.6.6M17.6 3.2l-.6-.6"/>
  </g>
  <circle cx="19.4" cy="4.7" r="1.4" fill="#2F9E4F" stroke="#0B0B0F" stroke-width="1"/>
</svg>
