<svg width="24" height="24" viewBox="0 0 24 24" fill="none" xmlns="http://www.w3.org/2000/svg">
  <title>Lè lưỡi mắt nhắm (Talavera)</title>
  <circle cx="12" cy="12.5" r="9" fill="#F2A80F" stroke="#0B0B0F" stroke-width="1.8"/>
  <path d="M7.4 10.6c.8.7 1.9.7 2.7 0M13.9 10.6c.8.7 1.9.7 2.7 0" stroke="#0B0B0F" stroke-width="1.6" stroke-linecap="round" fill="none"/>
  <path d="M9 14.6c1.6 1 3.6 1 5.2 0" stroke="#0B0B0F" stroke-width="1.4" stroke-linecap="round" fill="none"/><path d="M11 16.2c.6 1.6 1.6 2.6 2.6 2.6.6 0 1-.6 1-1.4" fill="#E23B2E" stroke="#0B0B0F" stroke-width="1.1" stroke-linejoin="round"/>
  
  <g stroke="#0B0B0F" stroke-width="0.8" stroke-linecap="round">
    <path d="M19.4 3.4v-.9M19.4 6v.9M21.4 4.7h-.9M17.8 4.7h.9M20.6 3.2l.6-.6M17.6 6.2l-.6.6M20.6 6.2l.6.6M17.6 3.2l-.6-.6"/>
  </g>
  <circle cx="19.4" cy="4.7" r="1.4" fill="#2F9E4F" stroke="#0B0B0F" stroke-width="1"/>
</svg>
